# xmcd
#
# Track frame offsets:
#	150
#	17134
#	32637
#	50093
#	67346
#	87645
#	104873
#	112223
#	128023
#	146841
#	168097
#	181067
#	192742
#	205590
#	221540
#	237611
#	249419
#	264578
#	279209
#	294566
#
# Disc length: 4146 seconds
#
# Revision: 0
# Processed by: cddbd v1.5.2PL0 Copyright (c) Steve Scherf et al.
# Submitted via: EasyCDDAExtractor 12.0.1.1
#
DISCID=41103014
DTITLE=The Thompson Brothers - Old State Road
DYEAR=2009
DGENRE=Country
TTITLE0=Jenny's Barn
TTITLE1=Wicked Words
TTITLE2=Don't Do It
TTITLE3=September
TTITLE4=If You Believe
TTITLE5=Ramona
TTITLE6=Autumn In Tennessee
TTITLE7=Nobody Listens To A Fool
TTITLE8=Atlanta 1864
TTITLE9=The Truth
TTITLE10=To Not Be Me
TTITLE11=A Shot To Win
TTITLE12=Would You Be Gone
TTITLE13=Strong Enough To Let Go
TTITLE14=Natural
TTITLE15=Chance To Shine
TTITLE16=The Best Days
TTITLE17=Devil's Bone Yard
TTITLE18=Alright
TTITLE19=Halfway Right
EXTD=
EXTT0=
EXTT1=
EXTT2=
EXTT3=
EXTT4=
EXTT5=
EXTT6=
EXTT7=
EXTT8=
EXTT9=
EXTT10=
EXTT11=
EXTT12=
EXTT13=
EXTT14=
EXTT15=
EXTT16=
EXTT17=
EXTT18=
EXTT19=
PLAYORDER=
